<svg width="24" height="25" viewBox="0 0 24 25" fill="none" xmlns="http://www.w3.org/2000/svg">
<path fill-rule="evenodd" clip-rule="evenodd" d="M13 18C13 20.4853 10.9853 22.5 8.5 22.5H8C5.79086 22.5 4 20.7091 4 18.5C4 17.3053 4.52376 16.2329 5.35418 15.5C4.52376 14.7671 4 13.6947 4 12.5C4 11.3053 4.52376 10.2329 5.35418 9.5C4.52376 8.76706 4 7.69469 4 6.5C4 4.29086 5.79086 2.5 8 2.5H16C18.2091 2.5 20 4.29086 20 6.5C20 7.95433 19.2239 9.22738 18.0632 9.92754C18.6478 10.623 19 11.5204 19 12.5C19 14.7091 17.2091 16.5 15 16.5C14.2714 16.5 13.5883 16.3052 13 15.9649V18ZM11 4.5H8C6.89543 4.5 6 5.39543 6 6.5C6 7.60457 6.89543 8.5 8 8.5H11V4.5ZM8 16.5C6.89543 16.5 6 17.3954 6 18.5C6 19.6046 6.89543 20.5 8 20.5H8.5C9.88071 20.5 11 19.3807 11 18V16.5H8ZM11 10.5V14.5H8C6.89543 14.5 6 13.6046 6 12.5C6 11.3954 6.89543 10.5 8 10.5H11ZM13 12.5C13 11.3954 13.8954 10.5 15 10.5C16.1046 10.5 17 11.3954 17 12.5C17 13.6046 16.1046 14.5 15 14.5C13.8954 14.5 13 13.6046 13 12.5ZM16 8.5H13V4.5H16C17.1046 4.5 18 5.39543 18 6.5C18 7.60457 17.1046 8.5 16 8.5Z" fill="#12131A"/>
</svg>
