<svg width="24" height="25" viewBox="0 0 24 25" fill="none" xmlns="http://www.w3.org/2000/svg">
<path d="M15.475 3.61746C17.6921 2.13844 18.8242 2.30285 19.1755 2.42708C19.4236 2.50791 19.6221 2.69893 19.7186 2.94553L19.7191 2.94666C20.1317 4.02683 20.2199 5.21098 19.9725 6.34297C20.6816 7.27845 21.0902 8.41933 21.1439 9.6051L21.15 9.60184V9.85201C21.15 12.365 20.3868 13.9781 19.3593 15.0173C18.3919 15.9957 17.2045 16.4511 16.2433 16.6827C16.4236 17.2109 16.5124 17.7684 16.5055 18.3296V21.7417C16.5055 22.2355 16.1193 22.6459 15.6304 22.6459C15.1417 22.6459 14.7556 22.2355 14.7556 21.7417V18.3286C14.7556 17.4001 14.4641 16.8864 14.2583 16.7234C13.9708 16.5022 13.845 16.1239 13.9364 15.7695C14.028 15.4143 14.3212 15.149 14.6804 15.107C15.8768 14.9571 17.0551 14.6661 17.9351 13.9092C18.8081 13.1584 19.412 11.927 19.4122 9.84011C19.3971 8.83269 19.0219 7.86785 18.3612 7.13394L18.3581 7.13059L18.3582 7.13055C18.1543 6.88998 18.0908 6.55597 18.189 6.25455L18.1892 6.25385C18.4106 5.5854 18.4411 4.8656 18.2787 4.18106C17.503 4.40827 16.7751 4.78701 16.1342 5.29793L16.1263 5.30429L16.1261 5.304C15.8997 5.46061 15.6156 5.50148 15.3559 5.41366C14.453 5.12744 13.5118 4.99469 12.5688 5.02037L12.5606 5.0206L12.5606 5.02037C11.6158 4.99469 10.6734 5.12745 9.76896 5.41373C9.50934 5.50083 9.22581 5.45998 8.99931 5.30425L8.99048 5.29817L8.99072 5.29787C8.32294 4.76481 7.55768 4.38053 6.74294 4.168C6.57684 4.84579 6.60439 5.56055 6.82395 6.22378L6.82427 6.22474L6.82427 6.22474C6.93054 6.5532 6.85617 6.91658 6.62748 7.17231L6.62313 7.17717L6.62303 7.17707C5.97551 7.8407 5.60918 8.74505 5.60306 9.68903H5.60533V9.83903C5.60533 11.9334 6.18068 13.1633 7.03813 13.9115C7.90248 14.6657 9.07964 14.9547 10.3372 15.107L10.3191 15.2559L10.3361 15.1068C10.6771 15.1457 10.9613 15.3871 11.0674 15.7184L11.0675 15.7185C11.1728 16.0474 11.0864 16.411 10.8423 16.6519C10.5793 16.9528 10.4097 17.3302 10.3573 17.7348V21.7458C10.3573 22.2397 9.97079 22.65 9.48221 22.65C8.9933 22.65 8.60711 22.2397 8.60711 21.7458V20.6628C6.04277 20.7675 4.84164 19.2267 4.53272 18.2092C4.29254 17.7611 3.90554 17.4197 3.44416 17.2459C2.98469 17.0848 2.74451 16.5721 2.89475 16.1043C3.04593 15.6335 3.54081 15.3713 4.00434 15.5324L4.00682 15.5332L4.00681 15.5332C4.95039 15.8797 5.72354 16.5967 6.16233 17.5276L6.16478 17.5328L6.16468 17.5329C6.18134 17.572 6.19556 17.6116 6.2077 17.6516L6.20779 17.6515C6.22557 17.7103 6.34167 18.0508 6.70737 18.3536C7.05336 18.6401 7.63844 18.906 8.6155 18.8484V17.6778C8.61082 17.6332 8.61119 17.588 8.61659 17.5435L8.61677 17.5419L8.61678 17.5419C8.65493 17.2522 8.72237 16.9677 8.81771 16.6928C7.65136 16.4254 6.4345 15.9273 5.49483 14.9255C4.50723 13.8726 3.84297 12.2818 3.84268 9.87069C3.84268 9.87018 3.84268 9.86967 3.84268 9.86916H3.99268L15.475 3.61746ZM15.475 3.61746C14.5206 3.3621 13.5377 3.24165 12.5523 3.25955C11.5652 3.24135 10.5804 3.36184 9.6247 3.61758C7.33782 2.09775 6.11602 2.32852 5.82566 2.41719L5.82564 2.41714L5.82194 2.41838C5.57171 2.50197 5.37323 2.69696 5.27775 2.94631C4.86415 4.0224 4.77296 5.20269 5.01569 6.33267L15.475 3.61746Z" fill="#131313" stroke="#131313" stroke-width="0.3"/>
</svg>
