<svg width="24" height="25" viewBox="0 0 24 25" fill="none" xmlns="http://www.w3.org/2000/svg">
<path fill-rule="evenodd" clip-rule="evenodd" d="M3 8.5C3 5.73858 5.23858 3.5 8 3.5H16C18.7614 3.5 21 5.73858 21 8.5V16.5C21 19.2614 18.7614 21.5 16 21.5H8C5.23858 21.5 3 19.2614 3 16.5V8.5ZM8 5.5C6.34315 5.5 5 6.84315 5 8.5V16.5C5 18.1569 6.34315 19.5 8 19.5H16C17.6569 19.5 19 18.1569 19 16.5V8.5C19 6.84315 17.6569 5.5 16 5.5H8Z" fill="#12131A"/>
<path fill-rule="evenodd" clip-rule="evenodd" d="M16.5 9C17.0523 9 17.5 8.55228 17.5 8C17.5 7.44772 17.0523 7 16.5 7C15.9477 7 15.5 7.44772 15.5 8C15.5 8.55228 15.9477 9 16.5 9ZM10 12.5C10 11.3954 10.8954 10.5 12 10.5C13.1046 10.5 14 11.3954 14 12.5C14 13.6046 13.1046 14.5 12 14.5C10.8954 14.5 10 13.6046 10 12.5ZM12 8.5C9.79086 8.5 8 10.2909 8 12.5C8 14.7091 9.79086 16.5 12 16.5C14.2091 16.5 16 14.7091 16 12.5C16 10.2909 14.2091 8.5 12 8.5Z" fill="#12131A"/>
</svg>
