<svg width="24" height="25" viewBox="0 0 24 25" fill="none" xmlns="http://www.w3.org/2000/svg">
<path fill-rule="evenodd" clip-rule="evenodd" d="M8.7587 3.5H15.2413C16.0463 3.49999 16.7106 3.49998 17.2518 3.54419C17.8139 3.59012 18.3306 3.68868 18.816 3.93597C19.5686 4.31947 20.1805 4.93139 20.564 5.68404C20.8113 6.16937 20.9099 6.68608 20.9558 7.24817C21 7.78936 21 8.45372 21 9.25868V15.7413C21 16.5463 21 17.2106 20.9558 17.7518C20.9099 18.3139 20.8113 18.8306 20.564 19.316C20.1805 20.0686 19.5686 20.6805 18.816 21.064C18.3306 21.3113 17.8139 21.4099 17.2518 21.4558C16.7106 21.5 16.0463 21.5 15.2413 21.5H8.75868C7.95372 21.5 7.28936 21.5 6.74817 21.4558C6.18608 21.4099 5.66937 21.3113 5.18404 21.064C4.43139 20.6805 3.81947 20.0686 3.43597 19.316C3.18868 18.8306 3.09012 18.3139 3.04419 17.7518C2.99998 17.2106 2.99999 16.5463 3 15.7413V9.2587C2.99999 8.45373 2.99998 7.78937 3.04419 7.24817C3.09012 6.68608 3.18868 6.16937 3.43597 5.68404C3.81947 4.93139 4.43139 4.31947 5.18404 3.93597C5.66937 3.68868 6.18608 3.59012 6.74817 3.54419C7.28937 3.49998 7.95373 3.49999 8.7587 3.5ZM6.91104 5.53755C6.47262 5.57337 6.24842 5.6383 6.09202 5.71799C5.7157 5.90973 5.40973 6.2157 5.21799 6.59202C5.1383 6.74842 5.07337 6.97262 5.03755 7.41104C5.00078 7.86113 5 8.44342 5 9.3V15.7C5 16.5566 5.00078 17.1389 5.03755 17.589C5.07337 18.0274 5.1383 18.2516 5.21799 18.408C5.40973 18.7843 5.7157 19.0903 6.09202 19.282C6.24842 19.3617 6.47262 19.4266 6.91104 19.4624C7.36113 19.4992 7.94342 19.5 8.8 19.5H15.2C16.0566 19.5 16.6389 19.4992 17.089 19.4624C17.5274 19.4266 17.7516 19.3617 17.908 19.282C18.2843 19.0903 18.5903 18.7843 18.782 18.408C18.8617 18.2516 18.9266 18.0274 18.9624 17.589C18.9992 17.1389 19 16.5566 19 15.7V9.3C19 8.44342 18.9992 7.86113 18.9624 7.41104C18.9266 6.97262 18.8617 6.74842 18.782 6.59202C18.5903 6.2157 18.2843 5.90973 17.908 5.71799C17.7516 5.6383 17.5274 5.57337 17.089 5.53755C16.6389 5.50078 16.0566 5.5 15.2 5.5H8.8C7.94342 5.5 7.36113 5.50078 6.91104 5.53755Z" fill="#12131A"/>
<path fill-rule="evenodd" clip-rule="evenodd" d="M8 9.5C8.55228 9.5 9 9.05228 9 8.5C9 7.94772 8.55228 7.5 8 7.5C7.44772 7.5 7 7.94772 7 8.5C7 9.05228 7.44772 9.5 8 9.5ZM8 11.5C7.44772 11.5 7 11.9477 7 12.5V16.5C7 17.0523 7.44772 17.5 8 17.5C8.55228 17.5 9 17.0523 9 16.5V12.5C9 11.9477 8.55228 11.5 8 11.5ZM14 13.5C13.4477 13.5 13 13.9477 13 14.5V16.5C13 17.0523 12.5523 17.5 12 17.5C11.4477 17.5 11 17.0523 11 16.5V14.5V12.5C11 11.9477 11.4477 11.5 12 11.5C12.2759 11.5 12.5257 11.6117 12.7066 11.7924C13.0982 11.605 13.5369 11.5 14 11.5C15.6569 11.5 17 12.8431 17 14.5V16.5C17 17.0523 16.5523 17.5 16 17.5C15.4477 17.5 15 17.0523 15 16.5V14.5C15 13.9477 14.5523 13.5 14 13.5Z" fill="#12131A"/>
</svg>
