<svg width="24" height="25" viewBox="0 0 24 25" fill="none" xmlns="http://www.w3.org/2000/svg">
<path fill-rule="evenodd" clip-rule="evenodd" d="M11.575 21.7C6.17498 21.7 2.84998 17.9 2.84998 13.075C2.84998 7.37499 7.37498 3.54999 12.525 3.54999C17.45 3.54999 21.125 6.57499 21.125 11.35C21.125 15.7 18.825 17.425 16.525 17.425C15.4 17.425 14.475 16.9 14.075 16.15C13.3 16.9 12.125 17.375 11 17.375C8.24998 17.375 6.84998 15.425 6.84998 13.075C6.84998 10.05 9.04998 7.59999 12.275 7.59999C13.2 7.59999 13.95 7.84999 14.525 8.27499L14.625 7.84999H17L15.825 13.35C15.6 14.45 15.85 15.325 16.925 15.325C18.25 15.325 19.025 14.225 19.025 11.3C19.025 7.39999 15.95 5.57499 12.5 5.57499C8.62498 5.57499 5.04998 8.24999 5.04998 13.075C5.04998 17.025 7.57498 19.6 11.575 19.6C13.075 19.6 14.625 19.275 15.975 18.575L16.8 20.6C15.25 21.3 13.2 21.7 11.575 21.7ZM11.4 15.025C12.05 15.025 12.7 14.85 13.225 14.325L14.025 10.625C13.575 10.15 12.925 9.92499 12.3 9.92499C10.65 9.92499 9.44998 11.2 9.44998 12.875C9.44998 14.175 10.075 15.025 11.4 15.025Z" fill="#131313"/>
</svg>
