<svg width="24" height="25" viewBox="0 0 24 25" fill="none" xmlns="http://www.w3.org/2000/svg">
<path fill-rule="evenodd" clip-rule="evenodd" d="M8 17.54V8.49996C8 8.06258 8.28425 7.67595 8.70173 7.54548L17.7017 5.04548C18.3457 4.84426 19 5.32532 19 5.99996V17.5C19 18.6045 17.8807 19.5 16.5 19.5C15.1193 19.5 14 18.6045 14 17.5C14 16.3954 15.1193 15.5 16.5 15.5C16.6712 15.5 16.8384 15.5137 17 15.54V8.49996L10 10.375V19.5C10 20.6045 8.88071 21.5 7.5 21.5C6.11929 21.5 5 20.6045 5 19.5C5 18.3954 6.11929 17.5 7.5 17.5C7.67123 17.5 7.83844 17.5137 8 17.54Z" fill="#131313"/>
</svg>
